:version 1.10
:name ASF
:units
  mass 1
  length 1
  angle deg
:documentation
  ASF file generated by Kaydara
:root
  axis xyz
  order  tx ty tz rx ry rz
  position 0 0 0
  orientation 0 0 0
:bonedata
  begin
    id 1
    name RightUpLegDummy
    direction -1 2.30186e-007 8.31532e-007
    length 4.46685
    axis 0 0 0 xyz
  end
  begin
    id 2
    name RightUpLeg
    direction -2.30187e-007 -1 1.24343e-010
    length 16.4045
    axis -3.49089 -0.000906625 0.000286804 xyz
    dof rx ry rz
  end
  begin
    id 3
    name RightLeg
    direction -2.30181e-007 -1 -4.17157e-009
    length 17.5097
    axis 3.68512 0.0193738 -0.131023 xyz
    dof rx ry rz
  end
  begin
    id 4
    name RightFoot
    direction 8.31421e-007 -4.51202e-011 1
    length 6.49508
    axis 4.81691e-005 -0.120479 -0.188788 xyz
    dof rx ry rz
  end
  begin
    id 5
    name RightToes
    direction 0.00124746 -0.014064 0.9999
    length 3.85082
    axis 0.000481921 0.542163 -0.142578 xyz
    dof rx ry rz
  end
  begin
    id 6
    name SpineDummy
    direction 0.0717043 0.9409 -0.331007
    length 10.0032
    axis 0 0 0 xyz
  end
  begin
    id 7
    name Spine
    direction 2.30186e-007 1 4.58806e-011
    length 9.84055
    axis -0.001389 0.000121418 2.40972e-006 xyz
    dof rx ry rz
  end
  begin
    id 8
    name Spine1
    direction 0 0 0
    length 0
    axis -0.001389 0.000121451 1.30017e-006 xyz
    dof rx ry rz
  end
  begin
    id 9
    name HEadDummy
    direction -0.00347485 0.950688 -0.310128
    length 8.00997
    axis -0.001389 0.000121451 1.30017e-006 xyz
  end
  begin
    id 10
    name HEad
    direction -0.0222688 0.980941 0.193023
    length 5.12695
    axis -0.001389 0.000121451 1.30017e-006 xyz
    dof rx ry rz
  end
  begin
    id 11
    name LeftShoulder1Dummy
    direction 0.988871 0.146793 -0.0242004
    length 3.5792
    axis -0.001389 0.000121451 1.30017e-006 xyz
  end
  begin
    id 12
    name LeftShoulder1
    direction 0.993832 0.108932 0.020779
    length 4.16823
    axis -0.001389 0.000121451 1.30017e-006 xyz
    dof rx ry rz
  end
  begin
    id 13
    name LeftArm
    direction 1 3.44807e-006 -8.31404e-007
    length 9.91437
    axis -23.1894 0.134784 0.967509 xyz
    dof rx ry rz
  end
  begin
    id 14
    name LeftForeArm
    direction 1 3.44842e-006 -8.31581e-007
    length 9.08575
    axis -9.91835 -0.06569 -0.177793 xyz
    dof rx ry rz
  end
  begin
    id 15
    name LeftHand
    direction 0.992938 -0.0411636 0.11126
    length 5.32135
    axis -0.00960232 -0.00340091 0.185173 xyz
    dof rx ry rz
  end
  begin
    id 16
    name RightShoulderDummy
    direction -0.988871 0.146793 -0.0241962
    length 3.5792
    axis -0.001389 0.000121451 1.30017e-006 xyz
  end
  begin
    id 17
    name RightShoulder
    direction -0.993832 0.108933 0.0207785
    length 4.16823
    axis 0.215806 0.000203643 -0.0068026 xyz
    dof rx ry rz
  end
  begin
    id 18
    name RightArm
    direction -1 3.90912e-006 8.31284e-007
    length 9.91437
    axis -23.2009 -0.134239 -0.964101 xyz
    dof rx ry rz
  end
  begin
    id 19
    name RightForeArm
    direction -1 3.90882e-006 8.31502e-007
    length 9.08575
    axis -9.92322 0.0658061 0.178867 xyz
    dof rx ry rz
  end
  begin
    id 20
    name RightHand
    direction -0.992843 -0.0414603 0.112003
    length 5.28593
    axis -0.00960638 0.00330671 -0.185228 xyz
    dof rx ry rz
  end
  begin
    id 21
    name LeftUpLegDummy
    direction 1 -2.30186e-007 -8.31532e-007
    length 4.46685
    axis 0 0 0 xyz
  end
  begin
    id 22
    name LeftUpLeg
    direction -2.30187e-007 -1 6.00931e-010
    length 16.4045
    axis -3.48766 0.00143442 -0.000524262 xyz
    dof rx ry rz
  end
  begin
    id 23
    name LeftLeg
    direction -2.30187e-007 -1 1.6669e-009
    length 17.5097
    axis 3.68178 -0.00654042 -0.000285133 xyz
    dof rx ry rz
  end
  begin
    id 24
    name LeftFoot
    direction 8.31532e-007 -4.54478e-011 1
    length 6.49508
    axis 1.87233e-006 4.66016e-005 -8.6538e-006 xyz
    dof rx ry rz
  end
  begin
    id 25
    name LeftToes
    direction 0.00818058 -0.00485161 0.999955
    length 3.85048
    axis 1.06247e-005 4.65869e-005 -8.65513e-006 xyz
    dof rx ry rz
  end
:hierarchy
  begin
    root RightUpLegDummy SpineDummy LeftUpLegDummy
    RightUpLegDummy RightUpLeg
    RightUpLeg RightLeg
    RightLeg RightFoot
    RightFoot RightToes
    SpineDummy Spine
    Spine Spine1
    Spine1 HEadDummy LeftShoulder1Dummy RightShoulderDummy
    HEadDummy HEad
    LeftShoulder1Dummy LeftShoulder1
    LeftShoulder1 LeftArm
    LeftArm LeftForeArm
    LeftForeArm LeftHand
    RightShoulderDummy RightShoulder
    RightShoulder RightArm
    RightArm RightForeArm
    RightForeArm RightHand
    LeftUpLegDummy LeftUpLeg
    LeftUpLeg LeftLeg
    LeftLeg LeftFoot
    LeftFoot LeftToes
  end

:SAMPLES-PER-SECOND 30
:FULLY-SPECIFIED
:DEGREES
64
root  -77.6834 31.7848 -14.3857 16.4333 47.1985 1.41482
RightUpLeg  -40.0633 -9.74879 -0.894121
RightLeg  47.0322 5.00315 4.66974
RightFoot  -11.745 -0.132079 -0.906583
RightToes  -43.8276 -0.249759 -0.335707
Spine  15.4443 -0.553841 0.781733
Spine1  27.34 -0.115126 -0.385356
HEad  12.1375 14.4086 -13.5514
LeftShoulder1  0 -2.42657e-020 -4.95415e-022
LeftArm  -42.3596 -14.3687 -83.4636
LeftForeArm  36.2535 -20.7995 -3.82709
LeftHand  0.111123 -4.84792 -2.99888
RightShoulder  0 2.42657e-020 1.07489e-018
RightArm  -26.9604 19.9637 75.9365
RightForeArm  58.3525 68.7934 27.1872
RightHand  -3.05825 20.3399 -16.5632
LeftUpLeg  -48.8199 13.9963 10.3625
LeftLeg  45.1347 -1.77099 -1.56994
LeftFoot  3.38864 0.0149955 -0.506953
LeftToes  -30.1435 8.63562e-007 1.17448e-007
65
root  -77.6754 31.3044 -13.7865 14.0818 49.1639 0.385264
RightUpLeg  -39.2433 -13.9613 0.809132
RightLeg  50.4787 2.51015 2.62238
RightFoot  -14.9491 -0.0898513 -0.307299
RightToes  -41.1958 -0.228106 -0.321777
Spine  16.0288 0.178368 0.650269
Spine1  28.4373 2.28973 -1.41191
HEad  12.3008 14.0752 -12.4347
LeftShoulder1  0 -2.42657e-020 -4.95415e-022
LeftArm  -43.7222 -15.3731 -83.9915
LeftForeArm  35.2618 -19.6257 -3.5928
LeftHand  0.0963969 -3.85143 -3.24221
RightShoulder  0 2.42657e-020 1.07489e-018
RightArm  -25.1386 23.325 76.6183
RightForeArm  56.4086 63.2154 20.5172
RightHand  -3.08404 20.7044 -16.4012
LeftUpLeg  -51.1274 16.401 8.93445
LeftLeg  41.8475 -3.13997 -2.47077
LeftFoot  2.20015 0.00736812 -0.383718
LeftToes  -31.3585 8.63562e-007 1.17448e-007
66
root  -77.5701 30.5923 -13.1188 11.3565 51.276 -0.847223
RightUpLeg  -38.675 -18.9503 2.09829
RightLeg  55.3637 0.435165 0.485033
RightFoot  -18.4563 0.0417504 0.634548
RightToes  -38.7078 -0.208243 -0.307707
Spine  16.9886 1.15429 0.620702
Spine1  30.0966 5.46551 -2.61247
HEad  12.2107 13.4781 -11.334
LeftShoulder1  0 -2.42657e-020 -4.95415e-022
LeftArm  -43.5382 -17.1002 -84.9562
LeftForeArm  33.9556 -18.7752 -3.42572
LeftHand  0.0908066 -3.12579 -3.70538
RightShoulder  0 2.42657e-020 1.07489e-018
RightArm  -23.1449 27.0494 77.0408
RightForeArm  53.7532 54.5042 14.3276
RightHand  -3.06283 20.6963 -16.2941
LeftUpLeg  -54.661 20.15 5.96671
LeftLeg  40.523 -3.69606 -2.7705
LeftFoot  0.924976 0.00109978 -0.136254
LeftToes  -34.1423 8.63562e-007 1.17448e-007
67
root  -77.3588 29.6405 -12.3654 7.63757 53.3016 -2.81081
RightUpLeg  -37.8466 -23.6436 3.27322
RightLeg  60.984 1.57366 2.3562
RightFoot  -22.6632 -0.0728569 0.0139806
RightToes  -39.5515 -0.21491 -0.312575
Spine  18.3056 2.56438 0.753096
Spine1  32.1938 9.80237 -4.01284
HEad  12.433 12.6592 -9.53509
LeftShoulder1  0 -2.42657e-020 -4.95415e-022
LeftArm  -43.0868 -19.286 -86.4771
LeftForeArm  33.1732 -18.0489 -3.2841
LeftHand  0.0992058 -2.74859 -4.51475
RightShoulder  0 2.42657e-020 1.07489e-018
RightArm  -21.69 30.3017 77.8342
RightForeArm  51.6405 44.3552 9.91173
RightHand  -3.21694 21.5802 -16.3982
LeftUpLeg  -58.6204 22.7737 3.68928
LeftLeg  41.6238 -2.25346 -1.76155
LeftFoot  -1.03466 0.00146798 0.16257
LeftToes  -34.8472 8.63562e-007 1.17448e-007
68
root  -77.1657 28.5444 -11.5374 2.87555 54.892 -6.46781
RightUpLeg  -36.9996 -25.1293 5.07072
RightLeg  66.3957 1.24795 2.28512
RightFoot  -27.0169 -0.0637552 0.112164
RightToes  -38.8597 -0.209438 -0.30859
Spine  19.511 4.08872 1.00065
Spine1  34.167 14.2018 -4.90298
HEad  12.0791 11.7225 -7.52921
LeftShoulder1  0 -2.42657e-020 -4.95415e-022
LeftArm  -43.3993 -21.3904 -88.3664
LeftForeArm  31.5407 -17.4584 -3.17053
LeftHand  0.112968 -2.37727 -5.8275
RightShoulder  0 2.42657e-020 1.07489e-018
RightArm  -20.668 34.1308 80.2343
RightForeArm  54.171 32.4778 6.40773
RightHand  -3.24554 23.4182 -15.2012
LeftUpLeg  -63.2956 24.7242 2.73435
LeftLeg  44.6888 -0.286382 -0.255251
LeftFoot  -2.72032 0.00774112 0.326017
LeftToes  -33.8987 8.63562e-007 1.17448e-007
69
root  -76.8209 27.4603 -10.7931 -1.66382 56.7141 -9.69305
RightUpLeg  -35.6097 -25.8839 6.10487
RightLeg  71.3623 0.493381 1.01508
RightFoot  -31.5681 0.123669 0.815068
RightToes  -37.0007 -0.194978 -0.29756
Spine  20.8213 5.2206 0.880511
Spine1  36.2529 17.6988 -6.0308
HEad  10.5876 10.6368 -5.31935
LeftShoulder1  0 -2.42657e-020 -4.95415e-022
LeftArm  -44.2239 -23.5602 -89.8968
LeftForeArm  27.4876 -16.69 -3.02456
LeftHand  0.0980642 -1.58968 -7.462
RightShoulder  0 2.42657e-020 1.07489e-018
RightArm  -20.5233 39.0269 83.3913
RightForeArm  57.9735 20.3765 3.70913
RightHand  -2.60927 24.8725 -11.425
LeftUpLeg  -66.1962 23.1001 3.9284
LeftLeg  48.6364 1.05246 1.0435
LeftFoot  -3.76726 0.0122646 0.372915
LeftToes  -32.7699 8.63562e-007 1.17448e-007
70
root  -76.5066 26.522 -9.99707 -5.09076 57.4333 -12.8663
RightUpLeg  -35.0461 -24.4521 8.10705
RightLeg  75.3332 -0.395018 -1.44174
RightFoot  -35.4393 0.576917 2.18304
RightToes  -34.3916 -0.175302 -0.2813
Spine  21.4491 6.6692 0.15945
Spine1  37.2974 20.9951 -6.69895
HEad  8.11914 8.77231 -2.96988
LeftShoulder1  0 -2.42657e-020 -4.95415e-022
LeftArm  -45.867 -25.3383 -90.5768
LeftForeArm  23.2148 -14.9851 -2.70146
LeftHand  0.0272244 -0.33937 -9.74179
RightShoulder  0 2.42657e-020 1.07489e-018
RightArm  -24.5632 43.1601 86.702
RightForeArm  65.9676 11.4433 1.98607
RightHand  -1.33864 26.175 -5.3848
LeftUpLeg  -68.4991 21.6523 5.94286
LeftLeg  52.684 -0.198109 -0.236064
LeftFoot  -3.76292 0.0201437 0.613196
LeftToes  -33.2436 8.63562e-007 1.17448e-007
